<svg xmlns="http://www.w3.org/2000/svg" viewBox="0 0 1000 620" font-family="-apple-system, BlinkMacSystemFont, 'SF Pro Display', 'Helvetica Neue', Arial, sans-serif">
  <defs>
    <marker id="arrow" markerWidth="10" markerHeight="7" refX="10" refY="3.5" orient="auto">
      <polygon points="0 0, 10 3.5, 0 7" fill="#86868b"/>
    </marker>
    <marker id="arrowBlue" markerWidth="10" markerHeight="7" refX="10" refY="3.5" orient="auto">
      <polygon points="0 0, 10 3.5, 0 7" fill="#0071e3"/>
    </marker>
    <filter id="shadow" x="-5%" y="-5%" width="120%" height="120%">
      <feDropShadow dx="0" dy="2" stdDeviation="4" flood-color="#000" flood-opacity="0.1"/>
    </filter>
    <filter id="shadowDeep" x="-5%" y="-5%" width="120%" height="120%">
      <feDropShadow dx="0" dy="3" stdDeviation="6" flood-color="#000" flood-opacity="0.15"/>
    </filter>
  </defs>
  <rect width="1000" height="620" fill="#f5f5f7" rx="0"/>
  <text x="500" y="36" text-anchor="middle" font-size="20" font-weight="600" fill="#1d1d1f">C4 Container Diagram - File Manager</text>
  <text x="500" y="56" text-anchor="middle" font-size="12" fill="#86868b">Mô hình kiến trúc container</text>
  <text x="155" y="100" text-anchor="middle" font-size="10" font-weight="600" fill="#86868b" letter-spacing="2">CLIENTS</text>
  <line x1="50" y1="105" x2="260" y2="105" stroke="#d2d2d7" stroke-width="1"/>
  <text x="505" y="100" text-anchor="middle" font-size="10" font-weight="600" fill="#86868b" letter-spacing="2">SERVER</text>
  <line x1="380" y1="105" x2="630" y2="105" stroke="#d2d2d7" stroke-width="1"/>
  <text x="845" y="100" text-anchor="middle" font-size="10" font-weight="600" fill="#86868b" letter-spacing="2">DATA</text>
  <line x1="750" y1="105" x2="940" y2="105" stroke="#d2d2d7" stroke-width="1"/>
  <g filter="url(#shadow)">
    <rect x="40" y="230" width="100" height="150" rx="18" fill="#0071e3"/>
    <text x="90" y="285" text-anchor="middle" font-size="36">👤</text>
    <text x="90" y="320" text-anchor="middle" font-size="14" font-weight="600" fill="white">User</text>
    <text x="90" y="338" text-anchor="middle" font-size="10" fill="rgba(255,255,255,0.8)">Người dùng</text>
    <text x="90" y="358" text-anchor="middle" font-size="9" fill="rgba(255,255,255,0.6)">Web & Mobile</text>
  </g>
  <g filter="url(#shadow)">
    <rect x="190" y="120" width="200" height="90" rx="12" fill="white" stroke="#0071e3" stroke-width="2"/>
    <rect x="190" y="120" width="200" height="30" rx="12" fill="#0071e3"/>
    <rect x="190" y="138" width="200" height="12" fill="#0071e3"/>
    <text x="290" y="140" text-anchor="middle" font-size="11" font-weight="600" fill="white">Angular SPA</text>
    <text x="290" y="170" text-anchor="middle" font-size="11" fill="#1d1d1f">Web Application</text>
    <text x="290" y="190" text-anchor="middle" font-size="10" fill="#86868b">Angular 21 - SSR - TailwindCSS</text>
  </g>
  <g filter="url(#shadow)">
    <rect x="190" y="370" width="200" height="90" rx="12" fill="white" stroke="#34c759" stroke-width="2"/>
    <rect x="190" y="370" width="200" height="30" rx="12" fill="#34c759"/>
    <rect x="190" y="388" width="200" height="12" fill="#34c759"/>
    <text x="290" y="390" text-anchor="middle" font-size="11" font-weight="600" fill="white">Android App</text>
    <text x="290" y="420" text-anchor="middle" font-size="11" fill="#1d1d1f">Mobile Application</text>
    <text x="290" y="440" text-anchor="middle" font-size="10" fill="#86868b">Java Native - Retrofit - OkHttp</text>
  </g>
  <g filter="url(#shadowDeep)">
    <rect x="440" y="215" width="240" height="140" rx="14" fill="white" stroke="#0071e3" stroke-width="2.5"/>
    <rect x="440" y="215" width="240" height="34" rx="14" fill="#0071e3"/>
    <rect x="440" y="237" width="240" height="12" fill="#0071e3"/>
    <text x="560" y="237" text-anchor="middle" font-size="12" font-weight="700" fill="white">Spring Boot API</text>
    <text x="560" y="268" text-anchor="middle" font-size="12" fill="#1d1d1f">REST API Server</text>
    <text x="560" y="288" text-anchor="middle" font-size="10" fill="#86868b">Spring Boot 3.2 - Jersey JAX-RS</text>
    <text x="560" y="304" text-anchor="middle" font-size="10" fill="#86868b">Spring Security - JWT</text>
    <text x="560" y="320" text-anchor="middle" font-size="10" fill="#86868b">Spring Data JPA - Hibernate</text>
    <text x="560" y="340" text-anchor="middle" font-size="9" fill="#86868b">Java 17 - Maven</text>
  </g>
  <g filter="url(#shadow)">
    <rect x="770" y="120" width="190" height="90" rx="12" fill="white" stroke="#ff9500" stroke-width="2"/>
    <rect x="770" y="120" width="190" height="30" rx="12" fill="#ff9500"/>
    <rect x="770" y="138" width="190" height="12" fill="#ff9500"/>
    <text x="865" y="140" text-anchor="middle" font-size="11" font-weight="600" fill="white">MySQL / H2</text>
    <text x="865" y="170" text-anchor="middle" font-size="11" fill="#1d1d1f">Relational Database</text>
    <text x="865" y="190" text-anchor="middle" font-size="10" fill="#86868b">Users - Files - Shares - Notifications</text>
  </g>
  <g filter="url(#shadow)">
    <rect x="770" y="370" width="190" height="90" rx="12" fill="white" stroke="#86868b" stroke-width="2"/>
    <rect x="770" y="370" width="190" height="30" rx="12" fill="#86868b"/>
    <rect x="770" y="388" width="190" height="12" fill="#86868b"/>
    <text x="865" y="390" text-anchor="middle" font-size="11" font-weight="600" fill="white">File Storage</text>
    <text x="865" y="420" text-anchor="middle" font-size="11" fill="#1d1d1f">Local Filesystem</text>
    <text x="865" y="440" text-anchor="middle" font-size="10" fill="#86868b">Uploaded files storage</text>
  </g>
  <path d="M 140 280 Q 165 200 190 165" fill="none" stroke="#86868b" stroke-width="1.5" marker-end="url(#arrow)"/>
  <text x="155" y="215" font-size="9" fill="#86868b">Uses [HTTPS]</text>
  <path d="M 140 340 Q 165 400 190 415" fill="none" stroke="#86868b" stroke-width="1.5" marker-end="url(#arrow)"/>
  <text x="155" y="395" font-size="9" fill="#86868b">Uses [HTTPS]</text>
  <path d="M 390 165 Q 415 230 440 265" fill="none" stroke="#0071e3" stroke-width="1.5" marker-end="url(#arrowBlue)"/>
  <text x="400" y="210" font-size="9" fill="#0071e3">REST API [JSON]</text>
  <path d="M 390 415 Q 415 370 440 330" fill="none" stroke="#34c759" stroke-width="1.5" marker-end="url(#arrow)"/>
  <text x="400" y="370" font-size="9" fill="#86868b">REST API [JSON]</text>
  <path d="M 680 260 Q 720 200 770 165" fill="none" stroke="#ff9500" stroke-width="1.5" marker-end="url(#arrow)"/>
  <text x="700" y="205" font-size="9" fill="#86868b">JDBC [SQL]</text>
  <text x="700" y="217" font-size="8" fill="#86868b">Reads / Writes</text>
  <path d="M 680 330 Q 720 390 770 415" fill="none" stroke="#86868b" stroke-width="1.5" marker-end="url(#arrow)"/>
  <text x="700" y="380" font-size="9" fill="#86868b">Filesystem IO</text>
  <text x="700" y="392" font-size="8" fill="#86868b">Store / Retrieve</text>
  <g transform="translate(40, 530)">
    <rect x="0" y="0" width="920" height="60" rx="10" fill="white" stroke="#e0e0e0" stroke-width="1"/>
    <text x="15" y="22" font-size="10" font-weight="600" fill="#1d1d1f">Chú thích:</text>
    <rect x="15" y="32" width="14" height="14" rx="3" fill="#0071e3"/>
    <text x="35" y="45" font-size="10" fill="#1d1d1f">System / Client</text>
    <rect x="130" y="32" width="14" height="14" rx="3" fill="#ff9500"/>
    <text x="150" y="45" font-size="10" fill="#1d1d1f">Database</text>
    <rect x="240" y="32" width="14" height="14" rx="3" fill="#86868b"/>
    <text x="260" y="45" font-size="10" fill="#1d1d1f">Storage</text>
    <rect x="340" y="32" width="14" height="14" rx="3" fill="#34c759"/>
    <text x="360" y="45" font-size="10" fill="#1d1d1f">Mobile</text>
    <text x="650" y="45" font-size="10" fill="#86868b">C4 level: Container - Apple Design Style</text>
  </g>
</svg>
